<mxfile host="Electron" agent="Mozilla/5.0 (Macintosh; Intel Mac OS X 10_15_7) AppleWebKit/537.36 (KHTML, like Gecko) draw.io/26.2.15 Chrome/134.0.6998.205 Electron/35.2.1 Safari/537.36" version="26.2.15">
  <diagram name="Page-1" id="GvxBB3Fzxmv_sKgU6XA8">
    <mxGraphModel dx="1234" dy="917" grid="1" gridSize="10" guides="1" tooltips="1" connect="1" arrows="1" fold="1" page="1" pageScale="1" pageWidth="1169" pageHeight="827" math="0" shadow="0">
      <root>
        <mxCell id="0" />
        <mxCell id="1" parent="0" />
        <mxCell id="bZEcGCgyvbnudb1XW6Zq-11" style="edgeStyle=orthogonalEdgeStyle;rounded=0;orthogonalLoop=1;jettySize=auto;html=1;exitX=1;exitY=0.5;exitDx=0;exitDy=0;entryX=0;entryY=0.5;entryDx=0;entryDy=0;" edge="1" parent="1" source="bZEcGCgyvbnudb1XW6Zq-1" target="bZEcGCgyvbnudb1XW6Zq-5">
          <mxGeometry relative="1" as="geometry" />
        </mxCell>
        <mxCell id="bZEcGCgyvbnudb1XW6Zq-1" value="&lt;font style=&quot;font-size: 17px;&quot; face=&quot;Helvetica&quot;&gt;Parse CLI&lt;/font&gt;&lt;div&gt;&lt;font style=&quot;font-size: 17px;&quot; face=&quot;Helvetica&quot;&gt;Flags&lt;/font&gt;&lt;/div&gt;" style="shape=parallelogram;perimeter=parallelogramPerimeter;whiteSpace=wrap;html=1;fixedSize=1;hachureGap=4;fontFamily=Architects Daughter;fontSource=https%3A%2F%2Ffonts.googleapis.com%2Fcss%3Ffamily%3DArchitects%2BDaughter;fillColor=#e1d5e7;strokeColor=#9673a6;" vertex="1" parent="1">
          <mxGeometry x="70" y="220" width="120" height="60" as="geometry" />
        </mxCell>
        <mxCell id="bZEcGCgyvbnudb1XW6Zq-13" style="edgeStyle=orthogonalEdgeStyle;rounded=0;orthogonalLoop=1;jettySize=auto;html=1;exitX=1;exitY=0.5;exitDx=0;exitDy=0;entryX=0;entryY=0.5;entryDx=0;entryDy=0;" edge="1" parent="1" source="bZEcGCgyvbnudb1XW6Zq-2" target="bZEcGCgyvbnudb1XW6Zq-9">
          <mxGeometry relative="1" as="geometry" />
        </mxCell>
        <mxCell id="bZEcGCgyvbnudb1XW6Zq-2" value="&lt;font style=&quot;font-size: 17px;&quot;&gt;Parse Whitelists and Load to Map&lt;/font&gt;" style="rounded=0;whiteSpace=wrap;html=1;fillColor=#e1d5e7;strokeColor=#9673a6;" vertex="1" parent="1">
          <mxGeometry x="390" y="220" width="120" height="60" as="geometry" />
        </mxCell>
        <mxCell id="bZEcGCgyvbnudb1XW6Zq-12" style="edgeStyle=orthogonalEdgeStyle;rounded=0;orthogonalLoop=1;jettySize=auto;html=1;exitX=1;exitY=0.5;exitDx=0;exitDy=0;" edge="1" parent="1" source="bZEcGCgyvbnudb1XW6Zq-5" target="bZEcGCgyvbnudb1XW6Zq-2">
          <mxGeometry relative="1" as="geometry" />
        </mxCell>
        <mxCell id="bZEcGCgyvbnudb1XW6Zq-5" value="&lt;font style=&quot;font-size: 17px;&quot;&gt;Load Config to Map&lt;/font&gt;" style="rounded=0;whiteSpace=wrap;html=1;fillColor=#e1d5e7;strokeColor=#9673a6;" vertex="1" parent="1">
          <mxGeometry x="230" y="220" width="120" height="60" as="geometry" />
        </mxCell>
        <mxCell id="bZEcGCgyvbnudb1XW6Zq-18" value="" style="edgeStyle=orthogonalEdgeStyle;rounded=0;orthogonalLoop=1;jettySize=auto;html=1;" edge="1" parent="1" source="bZEcGCgyvbnudb1XW6Zq-9" target="bZEcGCgyvbnudb1XW6Zq-17">
          <mxGeometry relative="1" as="geometry" />
        </mxCell>
        <mxCell id="bZEcGCgyvbnudb1XW6Zq-20" value="" style="edgeStyle=orthogonalEdgeStyle;rounded=0;orthogonalLoop=1;jettySize=auto;html=1;" edge="1" parent="1" source="bZEcGCgyvbnudb1XW6Zq-9" target="bZEcGCgyvbnudb1XW6Zq-19">
          <mxGeometry relative="1" as="geometry" />
        </mxCell>
        <mxCell id="bZEcGCgyvbnudb1XW6Zq-9" value="&lt;font style=&quot;font-size: 17px;&quot;&gt;Kill or Warn Mode?&lt;/font&gt;" style="rhombus;whiteSpace=wrap;html=1;fillColor=#fff2cc;strokeColor=#d6b656;" vertex="1" parent="1">
          <mxGeometry x="550" y="210" width="180" height="80" as="geometry" />
        </mxCell>
        <mxCell id="bZEcGCgyvbnudb1XW6Zq-17" value="&lt;font style=&quot;font-size: 17px;&quot;&gt;Spawn Goroutine;&lt;/font&gt;&lt;div&gt;&lt;font style=&quot;font-size: 17px;&quot;&gt;Listen on Ringbuffer&lt;/font&gt;&lt;/div&gt;" style="whiteSpace=wrap;html=1;fillColor=#dae8fc;strokeColor=#6c8ebf;" vertex="1" parent="1">
          <mxGeometry x="557.5" y="320" width="165" height="50" as="geometry" />
        </mxCell>
        <mxCell id="bZEcGCgyvbnudb1XW6Zq-22" value="" style="edgeStyle=orthogonalEdgeStyle;rounded=0;orthogonalLoop=1;jettySize=auto;html=1;entryX=0;entryY=0.5;entryDx=0;entryDy=0;" edge="1" parent="1" source="bZEcGCgyvbnudb1XW6Zq-19" target="bZEcGCgyvbnudb1XW6Zq-23">
          <mxGeometry relative="1" as="geometry">
            <mxPoint x="920" y="250" as="targetPoint" />
          </mxGeometry>
        </mxCell>
        <mxCell id="bZEcGCgyvbnudb1XW6Zq-19" value="&lt;font style=&quot;font-size: 16px;&quot;&gt;Configure and spawn executable (deprivileged)&lt;/font&gt;" style="whiteSpace=wrap;html=1;fillColor=#e1d5e7;strokeColor=#9673a6;" vertex="1" parent="1">
          <mxGeometry x="760" y="220" width="140" height="60" as="geometry" />
        </mxCell>
        <mxCell id="bZEcGCgyvbnudb1XW6Zq-26" value="" style="edgeStyle=orthogonalEdgeStyle;rounded=0;orthogonalLoop=1;jettySize=auto;html=1;" edge="1" parent="1" source="bZEcGCgyvbnudb1XW6Zq-23" target="bZEcGCgyvbnudb1XW6Zq-25">
          <mxGeometry relative="1" as="geometry" />
        </mxCell>
        <mxCell id="bZEcGCgyvbnudb1XW6Zq-23" value="&lt;font style=&quot;font-size: 15px;&quot;&gt;Find and load &lt;font face=&quot;Courier New&quot;&gt;libc&lt;/font&gt; from &lt;font style=&quot;&quot; face=&quot;Courier New&quot;&gt;/proc/pid/maps&lt;/font&gt;&lt;/font&gt;" style="rounded=0;whiteSpace=wrap;html=1;fillColor=#e1d5e7;strokeColor=#9673a6;" vertex="1" parent="1">
          <mxGeometry x="930" y="220" width="130" height="60" as="geometry" />
        </mxCell>
        <mxCell id="bZEcGCgyvbnudb1XW6Zq-29" value="" style="edgeStyle=orthogonalEdgeStyle;rounded=0;orthogonalLoop=1;jettySize=auto;html=1;" edge="1" parent="1" source="bZEcGCgyvbnudb1XW6Zq-25" target="bZEcGCgyvbnudb1XW6Zq-28">
          <mxGeometry relative="1" as="geometry" />
        </mxCell>
        <mxCell id="bZEcGCgyvbnudb1XW6Zq-25" value="&lt;font style=&quot;font-size: 17px;&quot;&gt;Add PID to follow map (activate filer)&lt;/font&gt;" style="whiteSpace=wrap;html=1;rounded=0;fillColor=#e1d5e7;strokeColor=#9673a6;" vertex="1" parent="1">
          <mxGeometry x="935" y="320" width="120" height="60" as="geometry" />
        </mxCell>
        <mxCell id="bZEcGCgyvbnudb1XW6Zq-36" value="" style="edgeStyle=orthogonalEdgeStyle;rounded=0;orthogonalLoop=1;jettySize=auto;html=1;" edge="1" parent="1" source="bZEcGCgyvbnudb1XW6Zq-28" target="bZEcGCgyvbnudb1XW6Zq-35">
          <mxGeometry relative="1" as="geometry" />
        </mxCell>
        <mxCell id="bZEcGCgyvbnudb1XW6Zq-28" value="&lt;font style=&quot;font-size: 17px;&quot;&gt;Wait for ringbuf read or process exit&lt;/font&gt;" style="whiteSpace=wrap;html=1;rounded=0;fillColor=#d5e8d4;strokeColor=#82b366;" vertex="1" parent="1">
          <mxGeometry x="920" y="430" width="120" height="60" as="geometry" />
        </mxCell>
        <mxCell id="bZEcGCgyvbnudb1XW6Zq-30" value="" style="endArrow=none;dashed=1;html=1;rounded=0;" edge="1" parent="1">
          <mxGeometry width="50" height="50" relative="1" as="geometry">
            <mxPoint x="640" y="440" as="sourcePoint" />
            <mxPoint x="640" y="370" as="targetPoint" />
          </mxGeometry>
        </mxCell>
        <mxCell id="bZEcGCgyvbnudb1XW6Zq-34" style="edgeStyle=orthogonalEdgeStyle;rounded=0;orthogonalLoop=1;jettySize=auto;html=1;exitX=1;exitY=0.5;exitDx=0;exitDy=0;entryX=0;entryY=0.5;entryDx=0;entryDy=0;dashed=1;dashPattern=8 8;" edge="1" parent="1" source="bZEcGCgyvbnudb1XW6Zq-31" target="bZEcGCgyvbnudb1XW6Zq-28">
          <mxGeometry relative="1" as="geometry" />
        </mxCell>
        <mxCell id="bZEcGCgyvbnudb1XW6Zq-31" value="&lt;font style=&quot;font-size: 17px;&quot;&gt;Signal that a read happened&lt;/font&gt;" style="rounded=0;whiteSpace=wrap;html=1;fillColor=#dae8fc;strokeColor=#6c8ebf;" vertex="1" parent="1">
          <mxGeometry x="580" y="440" width="120" height="60" as="geometry" />
        </mxCell>
        <mxCell id="bZEcGCgyvbnudb1XW6Zq-32" value="&lt;font style=&quot;font-size: 17px;&quot;&gt;On Read&lt;/font&gt;" style="text;strokeColor=none;fillColor=none;align=left;verticalAlign=middle;spacingLeft=4;spacingRight=4;overflow=hidden;points=[[0,0.5],[1,0.5]];portConstraint=eastwest;rotatable=0;whiteSpace=wrap;html=1;" vertex="1" parent="1">
          <mxGeometry x="557.5" y="390" width="80" height="30" as="geometry" />
        </mxCell>
        <mxCell id="bZEcGCgyvbnudb1XW6Zq-35" value="&lt;font style=&quot;font-size: 17px;&quot;&gt;Cleanup (cancel &lt;font face=&quot;Courier New&quot;&gt;ctx&lt;/font&gt;), exit&lt;/font&gt;" style="whiteSpace=wrap;html=1;fillColor=#d5e8d4;strokeColor=#82b366;rounded=0;" vertex="1" parent="1">
          <mxGeometry x="920" y="520" width="120" height="60" as="geometry" />
        </mxCell>
        <mxCell id="bZEcGCgyvbnudb1XW6Zq-38" value="" style="edgeStyle=none;orthogonalLoop=1;jettySize=auto;html=1;rounded=0;" edge="1" parent="1">
          <mxGeometry width="100" relative="1" as="geometry">
            <mxPoint x="20" y="250" as="sourcePoint" />
            <mxPoint x="80" y="249.5" as="targetPoint" />
            <Array as="points" />
          </mxGeometry>
        </mxCell>
      </root>
    </mxGraphModel>
  </diagram>
</mxfile>
